<svg width="239.99999999999997" height="239.99999999999997" xmlns="http://www.w3.org/2000/svg" fill="none" stroke="currentColor" stroke-width="2" stroke-linecap="round" stroke-linejoin="round" class="feather feather-refresh-cw">
 <g id="Layer_1">
  <title>Layer 1</title>
  <path fill="#f5c1bc" stroke="#1b264f" stroke-width="6" opacity="undefined" d="m120.79839,229.66365c-60.77348,0 -110,-49.22652 -110,-110c0,-60.77348 49.22652,-110 110,-110c60.77348,0 110,49.22652 110,110c0,60.77348 -49.22652,110 -110,110z" id="svg_1"/>
  <g stroke-width="4" stroke="null">
   <path fill="none" stroke="#1b264f" d="m127.37774,153.91176c4.94771,-0.59196 11.36413,-1.7671 17.81085,-3.44304c-8.55835,-1.13862 -16.80245,-2.66084 -23.03712,-4.05482c-3.9999,-0.90705 -7.12898,-1.73511 -9.18399,-2.4856c-9.62789,-3.51353 -15.37224,-12.91013 -15.34931,-22.90916c0,-3.05435 0.52741,-6.19674 1.64282,-9.25731c1.68104,-4.63772 4.62469,-8.17984 8.23052,-10.40075c0.71284,-0.43965 1.45371,-0.81957 2.20392,-1.16184c-1.44465,-1.15731 -2.77776,-2.33386 -3.94894,-3.50023c0,0 -5.03604,-8.10482 -7.40613,-26.15319c-1.51401,-11.51587 -15.82633,-13.92334 -21.54746,-8.19258c-9.41047,9.41557 -8.52183,13.29401 -8.52183,13.29401s7.57231,-1.78692 9.60015,-0.61178c3.52259,2.02755 2.70359,16.41008 -1.12022,35.9113c-2.78172,14.23956 -0.0184,27.70966 28.77808,35.08777c0.63867,0.8793 1.3467,1.69378 2.10597,2.45333c2.15268,3.15173 6.23977,8.76699 9.90618,11.61807l-1.81947,7.30507l-16.62212,3.15598l1.18986,6.24005l17.85331,-3.38784l12.99308,3.9529l1.85203,-6.07897l-10.86446,-3.29923l1.81947,-7.31384c1.53666,-1.546 2.60564,-4.32348 3.43483,-6.76831zm54.4214,-14.59938c-1.06445,-1.44408 -2.77691,-3.18429 -4.93384,-5.01735c-4.33792,-3.67462 -10.4435,-7.71613 -16.882,-11.50285c-12.85012,-7.57741 -27.25501,-14.27014 -31.93915,-15.95995c-2.87486,-1.05114 -5.83211,-1.60743 -8.5776,-1.60743c-3.14777,0 -5.97621,0.71369 -8.24892,2.1306c-2.27243,1.42455 -4.10096,3.52656 -5.32338,6.83088c-0.82863,2.27838 -1.22157,4.5927 -1.22157,6.83229c0.02321,7.38887 4.15673,13.90579 10.71584,16.2858c1.46249,0.53675 4.48484,1.36057 8.31318,2.22147c3.83287,0.86147 8.53145,1.78692 13.59948,2.61951c10.12813,1.68981 21.77507,3.05633 30.97662,3.04529c3.43511,0 6.52287,-0.19421 8.99432,-0.58743c2.48164,-0.38416 4.32376,-1.03189 5.17504,-1.60545c0.56478,-0.37992 0.65764,-0.59366 0.68566,-0.64886c0.00878,-0.05549 0.01812,-0.10163 0.02746,-0.20355c0.02774,-0.28678 -0.26866,-1.38378 -1.36114,-2.83296z"/>
  </g>
 </g>

</svg>